<?xml version="1.0" standalone="no"?>
<!DOCTYPE svg PUBLIC "-//W3C//DTD SVG 20010904//EN"
 "http://www.w3.org/TR/2001/REC-SVG-20010904/DTD/svg10.dtd">
<svg version="1.0" xmlns="http://www.w3.org/2000/svg"
 width="274.000000pt" height="274.000000pt" viewBox="0 0 274.000000 274.000000"
 preserveAspectRatio="xMidYMid meet">
<metadata>
Created by potrace 1.11, written by Peter Selinger 2001-2013
</metadata>
<g transform="translate(0.000000,274.000000) scale(0.100000,-0.100000)"
fill="#000000" stroke="none">
<path d="M500 1970 c-182 -38 -346 -134 -406 -235 -34 -59 -34 -146 1 -197 26
-39 106 -84 131 -74 20 8 10 22 -29 42 -79 40 -94 81 -58 159 39 87 164 164
341 210 140 36 396 47 513 21 107 -24 166 -69 181 -138 5 -23 2 -29 -26 -43
-41 -19 -77 -70 -85 -120 -5 -30 -14 -43 -51 -66 -101 -64 -296 -127 -461
-149 -45 -6 -85 -10 -87 -7 -5 5 99 170 151 237 79 103 140 148 193 141 21 -3
13 38 -10 53 -70 43 -120 32 -202 -45 -67 -62 -96 -109 -96 -153 0 -15 -25
-74 -56 -131 -51 -96 -58 -104 -87 -107 -35 -3 -40 -21 -7 -26 11 -2 20 -4 20
-6 0 -1 -22 -48 -50 -103 -57 -117 -92 -216 -88 -247 4 -27 49 -43 85 -30 30
10 123 126 123 153 0 9 -18 -2 -48 -32 -58 -57 -88 -63 -78 -15 8 41 113 260
129 270 7 4 40 8 74 8 138 0 403 64 501 121 44 25 46 25 60 -14 6 -18 39 -63
71 -100 73 -82 115 -151 108 -177 -3 -11 0 -20 6 -20 26 0 186 54 239 81 32
16 59 29 62 29 2 0 -16 -47 -41 -105 -25 -59 -45 -124 -46 -147 -2 -38 1 -43
26 -52 44 -16 77 3 130 76 60 83 58 113 -3 46 -24 -27 -52 -48 -63 -48 -29 0
-17 44 50 183 l58 119 20 -25 c11 -13 58 -79 104 -146 95 -139 248 -305 330
-360 114 -76 219 -110 337 -111 137 0 223 72 224 187 0 61 -7 83 -26 83 -10 0
-14 -13 -14 -41 0 -134 -157 -178 -356 -100 -154 60 -276 164 -461 391 l-102
125 82 8 c160 14 310 53 432 113 73 36 172 126 196 179 24 53 24 126 0 174
-25 48 -91 107 -147 131 -163 70 -497 66 -696 -10 -105 -39 -227 -130 -273
-203 -15 -23 -105 -1 -105 26 0 56 -67 140 -142 178 -113 57 -402 77 -578 39z
m1714 -71 c128 -22 196 -81 196 -169 0 -130 -206 -265 -503 -329 -98 -21 -197
-28 -197 -13 0 4 32 57 70 116 110 168 216 269 264 250 25 -9 19 19 -8 45 -32
30 -94 38 -133 17 -37 -19 -119 -99 -145 -141 -10 -16 -18 -42 -18 -57 0 -30
-9 -58 -19 -58 -4 0 -13 15 -19 34 -17 45 -72 93 -118 102 -45 8 -104 -9 -144
-42 -25 -21 -33 -24 -45 -14 -25 21 -17 42 39 96 82 80 223 137 401 163 87 12
308 13 379 0z"/>
</g>
</svg>
